<svg id="Livello_1" data-name="Livello 1" xmlns="http://www.w3.org/2000/svg" viewBox="0 0 1999.5 1676.36"><defs><style>.cls-1{fill:#009eff;}.cls-2{fill:#fff;}</style></defs><g id="Livello_4" data-name="Livello 4"><path class="cls-1" d="M786.15,1237.62c47.79,57.37,41.41,142.54-11.39,195.34l-19.53,19.53,194.66,193.34c29.9,29.9,74.55,29.9,104.45,0l869.9-869.89c101-101,101-264.81,0-365.83l-42.54-42.53a29.38,29.38,0,0,0-41.55,0h0c-52.79,52.79-138,59.17-195.33,11.39-65.67-54.69-69-152.87-9.91-211.94h0a32.72,32.72,0,0,0,0-46.26l-44-44c-98.93-98.93-259.33-98.93-358.26,0L307,1004.27l245.81,244.85,21.41-21.41C633.29,1168.64,731.46,1172,786.15,1237.62Zm514.27,69.61-300.21,300.22L844.69,1451.93c1-1.43,1.91-3,2.91-4.41q2.39-3.46,4.62-7c2.07-3.28,4-6.61,5.89-10,1.32-2.39,2.64-4.77,3.86-7.19,1.78-3.51,3.38-7.08,4.95-10.67,1-2.37,2.1-4.73,3-7.13,1.51-3.85,2.81-7.76,4.08-11.68.72-2.21,1.53-4.4,2.17-6.63,1.33-4.62,2.4-9.29,3.4-14,.34-1.58.8-3.14,1.1-4.73q1.82-9.48,2.75-19.08c.1-1.07.09-2.14.18-3.21.43-5.3.73-10.61.76-15.92,0-2.18-.15-4.36-.2-6.54-.11-4.2-.24-8.4-.6-12.6-.22-2.48-.57-5-.87-7.44-.48-3.87-1-7.74-1.67-11.59-.47-2.59-1-5.16-1.6-7.74-.81-3.71-1.68-7.39-2.69-11.06-.72-2.6-1.51-5.19-2.33-7.77q-1.71-5.38-3.73-10.69-1.5-3.82-3-7.6c-1.5-3.53-3.14-7-4.84-10.45-1.19-2.41-2.35-4.83-3.64-7.21-1.91-3.52-4-7-6.13-10.38-1.36-2.2-2.64-4.42-4.09-6.57-2.48-3.69-5.2-7.25-7.94-10.8-1.35-1.76-2.59-3.58-4-5.3-4.28-5.21-8.81-10.27-13.67-15.13s-9.93-9.4-15.13-13.68c-1.73-1.42-3.54-2.65-5.3-4-3.55-2.74-7.12-5.46-10.8-7.93-2.16-1.45-4.38-2.74-6.58-4.1-3.42-2.12-6.85-4.22-10.37-6.12-2.38-1.29-4.8-2.46-7.22-3.65-3.45-1.7-6.92-3.34-10.45-4.83-2.51-1.08-5-2.06-7.6-3-3.54-1.34-7.09-2.59-10.69-3.73-2.58-.82-5.16-1.6-7.77-2.32-3.66-1-7.35-1.89-11.06-2.7-2.57-.56-5.14-1.13-7.74-1.59-3.85-.69-7.71-1.2-11.59-1.67-2.48-.3-5-.66-7.44-.87-4.19-.36-8.39-.5-12.6-.6-2.18-.06-4.35-.22-6.53-.2-5.32,0-10.62.32-15.92.75-1.07.09-2.14.08-3.21.18-6.39.62-12.76,1.55-19.09,2.75-1.58.3-3.15.76-4.73,1.1-4.68,1-9.36,2.08-14,3.41-2.23.64-4.41,1.45-6.63,2.16-3.91,1.27-7.82,2.57-11.68,4.08-2.4.94-4.75,2-7.13,3.05-3.58,1.56-7.15,3.17-10.67,4.94-2.42,1.23-4.8,2.54-7.18,3.87-3.37,1.87-6.7,3.81-10,5.88-2.37,1.49-4.7,3-7,4.63-1.45,1-3,1.86-4.4,2.9L397.38,1004.61,697.59,704.4l63.78,63.78,46.26-46.25-63.78-63.79,516.21-516.21c83.81-83.8,219.68-83.8,303.48,0l3.78,3.78c-1,1.43-1.91,2.95-2.91,4.4q-2.39,3.48-4.62,7c-2.07,3.28-4,6.6-5.89,10-1.32,2.38-2.64,4.76-3.86,7.19-1.77,3.51-3.38,7.08-4.94,10.67-1,2.37-2.11,4.72-3,7.13-1.51,3.85-2.81,7.76-4.08,11.69-.72,2.21-1.52,4.39-2.17,6.61-1.33,4.63-2.4,9.31-3.4,14-.34,1.58-.8,3.13-1.1,4.72q-1.81,9.48-2.75,19.08c-.1,1.07-.09,2.14-.18,3.21-.43,5.3-.73,10.61-.76,15.92,0,2.18.15,4.36.2,6.54.11,4.2.24,8.4.6,12.6.22,2.48.57,4.95.88,7.43.47,3.88,1,7.75,1.66,11.6.47,2.59,1,5.16,1.6,7.74.81,3.7,1.68,7.39,2.69,11.06.72,2.6,1.51,5.18,2.33,7.77q1.71,5.39,3.73,10.69,1.5,3.83,3,7.59c1.5,3.53,3.14,7,4.85,10.47,1.18,2.41,2.35,4.83,3.63,7.2,1.91,3.52,4,7,6.13,10.38,1.36,2.19,2.64,4.42,4.09,6.57,2.48,3.69,5.2,7.25,7.94,10.8,1.35,1.76,2.59,3.58,4,5.3,4.28,5.2,8.81,10.27,13.67,15.13s9.93,9.39,15.13,13.68c1.73,1.41,3.54,2.65,5.3,4,3.56,2.74,7.12,5.45,10.8,7.93,2.16,1.45,4.38,2.74,6.58,4.1,3.42,2.12,6.85,4.22,10.37,6.12,2.38,1.29,4.79,2.45,7.21,3.64,3.46,1.7,6.93,3.35,10.47,4.85,2.51,1.06,5,2.05,7.58,3q5.31,2,10.7,3.74c2.58.82,5.16,1.6,7.77,2.32q5.51,1.5,11.06,2.69c2.58.57,5.14,1.14,7.74,1.6,3.85.69,7.71,1.2,11.59,1.67,2.48.3,5,.66,7.44.87,4.19.36,8.39.49,12.6.6,2.18.06,4.35.21,6.54.2,5.31,0,10.62-.33,15.91-.76,1.07-.08,2.15-.07,3.21-.18,6.4-.61,12.76-1.54,19.09-2.74,1.58-.3,3.14-.76,4.72-1.1,4.69-1,9.37-2.08,14-3.41,2.23-.64,4.41-1.45,6.62-2.16,3.92-1.27,7.83-2.57,11.69-4.08,2.4-.94,4.75-2,7.13-3,3.59-1.56,7.15-3.17,10.67-4.94,2.42-1.23,4.8-2.54,7.18-3.87,3.37-1.87,6.7-3.82,10-5.88,2.36-1.49,4.69-3,7-4.63,1.45-1,3-1.86,4.41-2.91h0c85.89,85.9,85.89,225.15,0,311L1346.68,1261Z" transform="translate(-0.49 0.02)"/><rect class="cls-1" x="886.48" y="775.26" width="65.42" height="208.95" transform="translate(-353.33 907.65) rotate(-45)"/><rect class="cls-1" x="1092.38" y="981.16" width="65.42" height="208.95" transform="translate(-438.62 1113.55) rotate(-45)"/><path class="cls-2" d="M74.88,412.38l54.51-44.24h0c31.19,58.66,93.4,88.82,165.93,81.67,80-7.9,144.57-72.45,152.46-152.51,7.16-72.55-22.75-134.86-81.39-166.06h0C494.52,3.08,693.84,1.05,822,129.22l875.08,875.33h0l-205,205.08h0a187.66,187.66,0,0,0-157.88-68.82c-93.56,5.92-169.56,82-175.47,175.53a187.77,187.77,0,0,0,68.79,157.92h0l-179.13,179.18c-25.39,25.4-59.12,16.06-84.51-9.34l-885-883C-20.34,661.86-14.06,508.82,74.88,412.38Z" transform="translate(-0.49 0.02)"/><path class="cls-1" d="M329.31,397.12c-54.24,28.05-120.62,16.38-163.8-26.8h0a34,34,0,0,0-48.08,0l0,0L74.92,412.8c-99.24,99.24-99.24,260.14,0,359.38L962.72,1660a55.79,55.79,0,0,0,78.89,0l206.78-206.78-24.05-24.06c-43.18-43.18-54.85-109.56-26.8-163.8,47.62-92.06,164-104.79,230.62-38.17l23.13,23.13,246.22-246.23L766.16,72.73c-97-97-254.2-97-351.17,0l-47.51,47.51a32.7,32.7,0,0,0,0,46.24l0,0h0C434.1,233.13,421.37,349.5,329.31,397.12ZM143.26,437c1.43,1,3,1.91,4.41,2.91,2.31,1.6,4.65,3.14,7,4.63,3.28,2.06,6.61,4,10,5.88,2.39,1.33,4.77,2.64,7.19,3.87,3.51,1.77,7.08,3.38,10.67,4.94,2.37,1,4.73,2.11,7.13,3,3.85,1.51,7.76,2.8,11.68,4.08,2.21.71,4.4,1.52,6.63,2.16,4.62,1.33,9.29,2.4,14,3.41,1.58.34,3.14.79,4.73,1.1,6.32,1.2,12.69,2.13,19.08,2.74,1.07.11,2.14.1,3.21.18,5.3.43,10.61.73,15.92.76,2.18,0,4.36-.14,6.54-.2,4.2-.11,8.4-.24,12.6-.6,2.48-.21,5-.57,7.44-.87,3.87-.47,7.74-1,11.59-1.67,2.59-.46,5.16-1,7.74-1.6,3.71-.8,7.39-1.68,11.06-2.69,2.6-.72,5.19-1.5,7.77-2.32Q335,465,340.29,463l7.6-3c3.52-1.49,7-3.14,10.45-4.84,2.41-1.19,4.83-2.35,7.21-3.64,3.52-1.9,6.95-4,10.38-6.12,2.2-1.36,4.42-2.65,6.57-4.1,3.69-2.48,7.25-5.19,10.8-7.93,1.76-1.36,3.58-2.6,5.3-4,5.21-4.29,10.27-8.82,15.13-13.68s9.4-9.93,13.68-15.13c1.42-1.72,2.65-3.54,4-5.3,2.74-3.55,5.46-7.11,7.93-10.8,1.45-2.15,2.74-4.38,4.1-6.57,2.12-3.43,4.22-6.86,6.12-10.38,1.29-2.38,2.46-4.8,3.65-7.22,1.7-3.45,3.34-6.92,4.83-10.44,1.08-2.52,2.06-5.05,3-7.6q2-5.31,3.73-10.69c.82-2.59,1.6-5.17,2.32-7.77,1-3.67,1.89-7.36,2.7-11.06.56-2.58,1.13-5.15,1.59-7.74.69-3.85,1.2-7.72,1.67-11.6.3-2.48.66-5,.87-7.43.36-4.2.5-8.4.6-12.6.06-2.18.22-4.36.2-6.54,0-5.31-.32-10.62-.75-15.92-.09-1.07-.08-2.14-.18-3.21-.62-6.39-1.55-12.76-2.75-19.08-.3-1.59-.76-3.15-1.1-4.73-1-4.69-2.08-9.36-3.41-14-.64-2.23-1.45-4.42-2.16-6.63-1.27-3.92-2.57-7.83-4.08-11.68-.94-2.41-2-4.76-3.05-7.13-1.56-3.59-3.17-7.16-4.94-10.67-1.23-2.43-2.54-4.81-3.87-7.19-1.87-3.37-3.81-6.69-5.88-10-1.49-2.36-3-4.69-4.63-7-1-1.45-1.86-3-2.9-4.4l7.33-7.33C524.23,56,656.92,56,738.76,137.85L953,352.13l-63.78,63.78,46.26,46.26,63.78-63.79L1581,980.16a33.84,33.84,0,0,1,0,47.85l-131.6,131.59c-1.43-1-3-1.9-4.4-2.9q-3.48-2.4-7-4.63c-3.28-2.07-6.6-4-10-5.88-2.38-1.33-4.76-2.64-7.19-3.87-3.51-1.77-7.08-3.38-10.67-4.94-2.37-1-4.72-2.11-7.13-3.05-3.85-1.51-7.76-2.81-11.69-4.08-2.21-.72-4.39-1.52-6.61-2.16-4.63-1.33-9.31-2.4-14-3.41-1.58-.34-3.13-.8-4.72-1.1-6.32-1.2-12.69-2.13-19.08-2.75-1.07-.1-2.14-.09-3.21-.18-5.3-.43-10.61-.72-15.92-.75-2.18,0-4.36.14-6.54.2-4.2.1-8.4.24-12.6.6-2.48.21-5,.57-7.43.87-3.88.47-7.75,1-11.6,1.67-2.59.46-5.16,1-7.74,1.59-3.7.81-7.39,1.69-11.06,2.7-2.6.72-5.18,1.5-7.77,2.32q-5.38,1.71-10.69,3.73l-7.59,3c-3.53,1.5-7,3.15-10.47,4.85-2.41,1.19-4.83,2.35-7.2,3.64-3.52,1.9-7,4-10.38,6.12-2.19,1.36-4.42,2.65-6.57,4.1-3.69,2.47-7.25,5.19-10.8,7.93-1.76,1.36-3.58,2.59-5.3,4-5.2,4.28-10.27,8.81-15.13,13.68s-9.39,9.92-13.68,15.13c-1.41,1.72-2.65,3.54-4,5.3-2.74,3.55-5.45,7.11-7.93,10.8-1.45,2.15-2.74,4.37-4.1,6.57-2.12,3.43-4.22,6.86-6.12,10.38-1.29,2.37-2.45,4.79-3.64,7.2-1.7,3.46-3.35,6.94-4.85,10.47-1.06,2.51-2,5-3,7.59q-2,5.31-3.74,10.69c-.82,2.58-1.6,5.17-2.32,7.77q-1.5,5.51-2.69,11.06c-.57,2.58-1.14,5.15-1.6,7.74-.69,3.85-1.2,7.72-1.67,11.59-.3,2.48-.66,5-.87,7.44-.36,4.2-.49,8.4-.6,12.6-.06,2.18-.21,4.36-.2,6.54,0,5.31.33,10.62.76,15.92.08,1.07.07,2.14.18,3.21.61,6.39,1.54,12.76,2.74,19.08.3,1.59.76,3.14,1.1,4.72,1,4.69,2.08,9.37,3.41,14,.64,2.22,1.45,4.4,2.16,6.61,1.27,3.92,2.57,7.84,4.08,11.69.94,2.4,2,4.76,3,7.13,1.56,3.59,3.17,7.16,4.94,10.67,1.23,2.42,2.54,4.8,3.87,7.19,1.87,3.36,3.82,6.69,5.88,10,1.49,2.36,3,4.69,4.63,7,1,1.46,1.86,3,2.91,4.41l-132.9,132.9a32,32,0,0,1-45.25,0L393.77,998.53l63.79-63.79-46.25-46.26-63.79,63.79L143.26,748C57.37,662.11,57.37,522.85,143.26,437Z" transform="translate(-0.49 0.02)"/><rect class="cls-1" x="671.66" y="539.45" width="208.95" height="65.42" transform="translate(-177.74 716.41) rotate(-45)"/><rect class="cls-1" x="465.77" y="745.35" width="208.95" height="65.42" transform="translate(-383.64 631.13) rotate(-45)"/></g></svg>